<svg xmlns="http://www.w3.org/2000/svg" viewBox="0 0 130 30">
  <title>
    openplan-logo
  </title>
  <path d="M16.7 14.24a8 8 0 0 1-1.09 4.26 8.17 8.17 0 0 1-2.95 3.17 8.45 8.45 0 0 1-4.37 1.2 7.82 7.82 0 0 1-6-2.51A8.86 8.86 0 0 1 0 14.24a8.68 8.68 0 0 1 2.29-6.12 8 8 0 0 1 6-2.51 7.82 7.82 0 0 1 6 2.51 8.48 8.48 0 0 1 2.41 6.12zm-2.07 0a7 7 0 0 0-1.75-4.91 5.79 5.79 0 0 0-4.58-2 5.64 5.64 0 0 0-4.58 2 7.41 7.41 0 0 0-1.64 4.91 7.83 7.83 0 0 0 1.64 4.91 5.49 5.49 0 0 0 4.68 2.07 5.64 5.64 0 0 0 4.58-2 7.92 7.92 0 0 0 1.65-4.98zM31 16.53a9.36 9.36 0 0 1-.55 2.95 5.27 5.27 0 0 1-1.64 2.4 4.47 4.47 0 0 1-3.06 1 4.22 4.22 0 0 1-3.82-2v5.68h2.62V28h-6.43v-1.43h2.07v-14h-2.07v-1.39h3.82v2.4a6 6 0 0 1 1.53-1.86A3.83 3.83 0 0 1 26 11a5 5 0 0 1 3.6 1.53 5.37 5.37 0 0 1 1.4 4zm-1.86.22a4.58 4.58 0 0 0-1-3.17 3.16 3.16 0 0 0-2.51-1.09 3.26 3.26 0 0 0-2.51 1.2A4.69 4.69 0 0 0 22 16.2v1.64a3.35 3.35 0 0 0 3.38 3.38 3.08 3.08 0 0 0 2.84-1.42 5.32 5.32 0 0 0 .92-3.05zM43 19.26a3.93 3.93 0 0 1-1.42 2.51 5.45 5.45 0 0 1-3.38 1.09 5.35 5.35 0 0 1-3.93-1.53 5.79 5.79 0 0 1-1.53-4.26 6.38 6.38 0 0 1 1.42-4.37A4.88 4.88 0 0 1 38 11a4.61 4.61 0 0 1 3.6 1.53A5.74 5.74 0 0 1 42.9 16a5.31 5.31 0 0 1-.11 1.31h-8c.11 2.62 1.31 4 3.6 4a3 3 0 0 0 2.07-.65 2.59 2.59 0 0 0 1-1.64zM41 16a3.25 3.25 0 0 0-.65-2.4A2.57 2.57 0 0 0 38 12.49a2.38 2.38 0 0 0-2.29 1.09 4.62 4.62 0 0 0-.87 2.51H41zm17.07 6.53h-5.68v-1.42h2v-5.35a3.59 3.59 0 0 0-.76-2.62 2.39 2.39 0 0 0-1.86-.76 3.46 3.46 0 0 0-2.51 1 3.14 3.14 0 0 0-1 2.29V21h2v1.42h-5.84V21h2v-8.4h-2.1v-1.42h3.82v2.07A4.66 4.66 0 0 1 55 11.94a4.1 4.1 0 0 1 1.09 3.27v5.89h2zm14.52-11.46a5.11 5.11 0 0 1-1.64 4 6.26 6.26 0 0 1-4 1.42h-3.31v4.58h2.84v1.64H59.6v-1.6h2.07V7.58H59.6V5.94h7.09c2.07 0 3.6.55 4.48 1.53a5.32 5.32 0 0 1 1.42 3.6zm-2.07 0a3.13 3.13 0 0 0-1-2.51 4 4 0 0 0-2.95-1h-2.93v7.2h3.06c2.5.02 3.81-1.29 3.81-3.69zm8.29 11.46H73v-1.42h2V6.38h-2.09V5h3.82v16.11h2v1.42zm2.62-10.48a5.79 5.79 0 0 1 1.86-.87 6.72 6.72 0 0 1 2.07-.18c2.73 0 4 1.31 4 3.82v5.46c0 .87.33 1.2 1 1.2a1.62 1.62 0 0 0 .76-.11v1.2a3.55 3.55 0 0 1-1.53.44c-1.31 0-2.07-.76-2.07-2.29A4.38 4.38 0 0 1 86 22.31a4.19 4.19 0 0 1-2.4.76 4.58 4.58 0 0 1-2.29-.65 2.7 2.7 0 0 1-1.2-2.51 2.69 2.69 0 0 1 1.75-2.84 9.61 9.61 0 0 1 3.6-.65h1.09a3 3 0 0 1 1 .11v-1a3.24 3.24 0 0 0-.55-2 2.3 2.3 0 0 0-2.07-.76 4.6 4.6 0 0 0-2.18.44l-.44 2-1.54-.21zm6.33 6.22v-.87a3 3 0 0 1-1-.11h-1.08a5.06 5.06 0 0 0-2.29.44 1.73 1.73 0 0 0-1.09 1.75A1.7 1.7 0 0 0 83 21a2.4 2.4 0 0 0 1.42.44 3.47 3.47 0 0 0 2.18-.87 3.38 3.38 0 0 0 1.16-2.3zm18.66 4.26h-5.79v-1.42h2v-5.35a3.59 3.59 0 0 0-.76-2.62 2.39 2.39 0 0 0-1.86-.76 3.46 3.46 0 0 0-2.51 1 3.14 3.14 0 0 0-1 2.29V21h2v1.42h-5.72V21h2v-8.4h-2v-1.42h3.82v2.07a4.66 4.66 0 0 1 6.88-1.31 4.1 4.1 0 0 1 1.09 3.27v5.89h2v1.42zm7.1 3.71V3.65h2.07V1.9h-3.82v26.09h3.82v-1.75h-2.07M116 0v30l14-2V2.11zm3.6 15a.66.66 0 1 1-.65-.63.62.62 0 0 1 .68.63z"/>
</svg>
